<?xml version="1.0" encoding="UTF-8"?>
<svg width="1200pt" height="1200pt" version="1.1" viewBox="0 0 1200 1200" xmlns="http://www.w3.org/2000/svg">
 <path d="m599.68 883.69c22.922 0 42.281-14.062 48.234-33.234h-96.469c5.9531 19.125 25.312 33.234 48.234 33.234z"/>
 <path d="m827.68 753.56c-18.938-22.125-32.719-48.047-40.922-77.109-10.125-35.812-11.812-76.453-4.9688-120.79 7.3594-47.672-4.2188-87.938-34.453-119.67-35.438-37.172-88.969-53.953-126.71-54.188 10.828-6.3281 18-17.391 18-29.953 0-19.594-17.484-35.531-38.953-35.531s-38.953 15.938-38.953 35.531c0 12.562 7.2188 23.625 18 29.953-37.734 0.28125-91.312 17.062-126.71 54.188-30.234 31.734-41.859 72-34.453 119.67 6.8438 44.344 5.25 84.938-4.7344 120.74-8.1094 29.062-21.703 54.984-40.406 77.109-26.531 31.312-55.781 45.984-66.094 50.484v21.562h585.79l-1.8281-23.438c-12.891-6.1406-38.812-20.766-62.625-48.562zm-289.13-344.44-2.0156 2.0156c-0.375 0.375-0.75 0.75-1.1719 1.125-0.42188 0.42188-0.79688 0.84375-1.2656 1.2656-1.7344 1.7344-3.6562 3.7969-5.7656 6.1406-4.1719 4.6875-9 10.5-13.828 17.484-0.28125 0.42188-0.60938 0.89062-0.89062 1.3125-0.28125 0.46875-0.60938 0.89062-0.89062 1.3594-0.60938 0.89062-1.2188 1.8281-1.8281 2.7656-1.1719 1.9219-2.3906 3.8438-3.5156 5.9062-1.1719 2.0156-2.2969 4.125-3.4219 6.2812-0.5625 1.0781-1.0781 2.2031-1.6406 3.3281s-1.0312 2.25-1.5469 3.4219c-1.0312 2.2969-2.0156 4.6875-2.9531 7.0781-0.46875 1.2188-0.89062 2.4375-1.3594 3.7031-0.46875 1.2188-0.84375 2.5312-1.2656 3.7969-1.5938 5.1094-3.0469 10.453-4.125 15.984-0.28125 1.3594-0.46875 2.7656-0.75 4.1719s-0.46875 2.8125-0.65625 4.2656c-0.1875 1.4062-0.42188 2.8594-0.51562 4.3125-0.14062 1.4531-0.32812 2.9062-0.42188 4.3594-0.46875 5.8594-0.5625 11.906-0.42188 18.047s0.70312 12.375 1.5469 18.656c0.375 3.1406 0.9375 6.3281 1.4531 9.4688 0.51562 3.4219 1.0312 6.8906 1.5938 10.359 0.23438 1.6875 0.51562 3.4219 0.75 5.1094 0.09375 0.84375 0.28125 1.6875 0.375 2.5781l0.28125 2.7188c0.375 3.6094 0.70312 7.2188 1.0312 10.875l0.23438 2.7188c0.09375 0.89062 0.09375 1.7812 0.14062 2.7188 0.046875 1.7812 0.14062 3.6094 0.1875 5.3906l0.1875 5.3906 0.09375 2.7188c0.046875 0.89062 0 1.8281-0.046875 2.7188-0.09375 3.6094-0.1875 7.2656-0.28125 10.875-0.046875 0.89062 0 1.8281-0.09375 2.7188l-0.23438 2.7188c-0.14062 1.8281-0.28125 3.6094-0.46875 5.4375-0.14062 1.7812-0.28125 3.6094-0.46875 5.3906-0.046875 0.89062-0.23438 1.7812-0.32812 2.6719l-0.375 2.6719c-0.28125 1.7812-0.51562 3.5625-0.79688 5.3438l-0.375 2.6719-0.1875 1.3125-0.28125 1.3125c-0.75 3.5156-1.4531 7.0312-2.2031 10.547l-0.28125 1.3125-0.375 1.3125c-0.23438 0.84375-0.46875 1.7344-0.70312 2.5781-0.46875 1.7344-0.9375 3.4219-1.4062 5.1562-0.84375 3.4219-2.1094 6.75-3.2344 10.078-0.5625 1.6406-1.125 3.3281-1.7344 4.9688-0.65625 1.6406-1.3125 3.2344-2.0156 4.8281-5.25 12.844-11.766 24.844-19.125 35.438-7.3594 10.641-15.609 19.875-23.859 27.75-4.1719 3.8906-8.2969 7.5-12.422 10.688-0.51562 0.42188-1.0312 0.79688-1.5 1.2188l-1.5469 1.125c-1.0312 0.75-2.0156 1.5-3.0469 2.2031-1.9688 1.5-4.0312 2.7656-5.9531 4.0781-7.8281 5.1094-15.047 8.9062-21.141 11.672-0.75 0.32812-1.5 0.70312-2.25 1.0312s-1.4531 0.60938-2.1094 0.89062c-1.3594 0.5625-2.6719 1.125-3.9375 1.5469-2.4375 0.9375-4.5469 1.6406-6.2344 2.2031-1.7344 0.5625-3.0469 0.89062-3.9375 1.125s-1.3594 0.32812-1.3594 0.32812 0.42188-0.23438 1.2188-0.65625c0.79688-0.46875 1.9219-1.1719 3.4219-2.1094 0.75-0.46875 1.5469-0.98438 2.4375-1.5938 0.89062-0.5625 1.875-1.2188 2.9062-1.9219 0.51562-0.375 1.0312-0.70312 1.5938-1.125 0.5625-0.375 1.0781-0.79688 1.6875-1.2188 0.5625-0.42188 1.1719-0.84375 1.7812-1.2656 0.60938-0.46875 1.2188-0.9375 1.875-1.4062 5.0625-3.8906 10.969-8.7656 17.25-14.766 3.1406-3 6.375-6.2812 9.5625-9.8438 0.79688-0.89062 1.5938-1.7812 2.4375-2.7188 0.42188-0.46875 0.84375-0.89062 1.2188-1.3594 0.42188-0.46875 0.79688-0.9375 1.2188-1.4531 0.79688-0.98438 1.5938-1.9219 2.3906-2.9062s1.6406-1.9688 2.3906-3c6.4219-8.1562 12.562-17.438 18.047-27.703 5.4844-10.219 10.266-21.422 14.062-33.328 0.46875-1.5 0.98438-2.9531 1.4531-4.4531 0.42188-1.5 0.79688-3.0469 1.2188-4.5938 0.79688-3.0469 1.7344-6.0938 2.3438-9.2344 0.32812-1.5469 0.70312-3.1406 1.0312-4.6875 0.1875-0.79688 0.32812-1.5469 0.51562-2.3438l0.28125-1.1719 0.1875-1.2188c0.51562-3.1875 1.0781-6.4219 1.5938-9.6094l0.1875-1.2188 0.42188-3.6562 0.5625-4.9219c0.1875-1.6406 0.42188-3.2812 0.5625-4.9219 0.09375-1.6406 0.23438-3.3281 0.32812-4.9688s0.23438-3.3281 0.32812-4.9688l0.1875-2.4844c0.046875-0.84375 0.046875-1.6875 0.046875-2.4844 0.046875-3.3281 0.14062-6.6562 0.1875-10.031 0-0.84375 0.046875-1.6406 0.046875-2.4844l-0.046875-2.5312-0.14062-5.0156c-0.046875-1.6875-0.09375-3.3281-0.09375-5.0156-0.046875-0.84375 0-1.6875-0.09375-2.4844l-0.1875-2.4844c-0.23438-3.2812-0.46875-6.5625-0.65625-9.8438l-0.14062-2.4375c-0.046875-0.79688-0.1875-1.6875-0.28125-2.5312-0.1875-1.6875-0.375-3.4219-0.5625-5.1094-0.375-3.3281-0.70312-6.6562-1.0781-9.9375-0.42188-3.5625-0.84375-7.0781-1.0781-10.641-0.14062-1.7812-0.28125-3.5156-0.32812-5.2969s-0.14062-3.5156-0.1875-5.25v-5.25c0-1.7344 0.14062-3.4688 0.1875-5.2031 0.046875-0.84375 0.046875-1.7344 0.09375-2.5781s0.14062-1.7344 0.1875-2.5781c0.14062-1.7344 0.23438-3.4219 0.46875-5.1094s0.375-3.375 0.60938-5.0625c0.28125-1.6406 0.5625-3.3281 0.79688-4.9688 0.60938-3.2812 1.2656-6.5625 2.1094-9.7031 0.75-3.1875 1.6875-6.2812 2.6719-9.3281 0.51562-1.5 1.0312-3.0469 1.5469-4.5 0.5625-1.5 1.125-2.9531 1.6875-4.4062s1.2188-2.8594 1.7812-4.2656c0.32812-0.70312 0.60938-1.4062 0.9375-2.1094s0.65625-1.3594 0.98438-2.0625c0.70312-1.3594 1.3125-2.7188 2.0156-4.0312s1.4062-2.625 2.1094-3.8906c1.5-2.5312 2.9062-5.0156 4.5-7.3594 3.0938-4.7344 6.2812-9.0938 9.6094-13.031 1.6406-2.0156 3.3281-3.8438 4.9688-5.6719 1.6875-1.7812 3.2812-3.5156 4.9688-5.1094 6.6094-6.4219 12.938-11.391 18.328-15.188 1.3594-0.9375 2.6719-1.7812 3.8906-2.625 1.2188-0.79688 2.4375-1.5 3.5156-2.2031 2.1562-1.3594 4.125-2.4375 5.625-3.2812 1.5469-0.84375 2.7656-1.4531 3.5625-1.875 0.70312-0.375 1.125-0.60938 1.2188-0.60938-0.14062 0.1875-1.4531 1.4531-3.7969 3.6562z"/>
 <path d="m315.71 663.28c0.9375 0.75 1.8281 1.4062 2.6719 2.0625 0.84375 0.60938 1.6875 1.1719 2.4375 1.6875 1.5469 1.0312 2.8594 1.9219 3.8906 2.625 2.1562 1.4062 3.3281 2.1094 3.3281 2.1094s-0.75-1.125-2.1562-3.1406c-0.70312-1.0312-1.5938-2.25-2.6719-3.7031-0.51562-0.70312-1.0781-1.5-1.6875-2.3438-0.5625-0.84375-1.1719-1.7344-1.7812-2.6719-1.2656-1.875-2.6719-3.9375-4.1719-6.1406-1.4062-2.3438-3-4.7812-4.6406-7.4062-0.84375-1.3125-1.5938-2.7188-2.4375-4.125-0.79688-1.4062-1.6406-2.8594-2.5312-4.3594-0.42188-0.75-0.89062-1.5-1.2656-2.25-0.42188-0.79688-0.79688-1.5469-1.2188-2.3438-0.84375-1.5938-1.6875-3.1875-2.5781-4.875-0.23438-0.42188-0.42188-0.84375-0.65625-1.2188-0.1875-0.42188-0.42188-0.84375-0.60938-1.2656-0.42188-0.84375-0.79688-1.7344-1.2188-2.5781-0.84375-1.7344-1.6875-3.5156-2.5312-5.2969-0.79688-1.8281-1.5469-3.7031-2.3906-5.5781-0.42188-0.9375-0.79688-1.875-1.2188-2.8125s-0.75-1.9219-1.125-2.9062c-0.75-1.9688-1.5-3.9375-2.25-5.9531-0.375-0.98438-0.70312-2.0156-1.0312-3.0469s-0.70312-2.0625-1.0312-3.0938-0.70312-2.0625-1.0312-3.0938-0.60938-2.1094-0.9375-3.1875c-0.60938-2.1094-1.2188-4.2656-1.875-6.4219-2.2031-8.7188-4.0312-17.766-5.3438-27.047-1.1719-9.2812-1.7812-18.75-1.875-28.172 0.09375-9.4688 0.70312-18.938 1.875-28.172 1.2656-9.2812 3.1406-18.328 5.3438-27.047 0.65625-2.1562 1.2656-4.3125 1.875-6.4219 0.32812-1.0781 0.5625-2.1562 0.9375-3.1875 0.32812-1.0312 0.70312-2.0625 1.0312-3.0938s0.70312-2.0625 1.0312-3.0938c0.375-1.0312 0.65625-2.0625 1.0312-3.0469 0.75-2.0156 1.5-3.9844 2.25-5.9531 0.375-0.98438 0.70312-1.9688 1.125-2.9062s0.79688-1.875 1.2188-2.8125c0.79688-1.875 1.5938-3.75 2.3906-5.5781 0.84375-1.7812 1.6875-3.5625 2.5312-5.2969 0.42188-0.89062 0.84375-1.7344 1.2188-2.5781 0.1875-0.42188 0.42188-0.84375 0.60938-1.2656 0.23438-0.42188 0.42188-0.84375 0.65625-1.2188 0.89062-1.6406 1.7344-3.2812 2.5781-4.875 0.42188-0.79688 0.84375-1.5938 1.2188-2.3438 0.42188-0.79688 0.89062-1.5 1.2656-2.25 0.84375-1.5 1.6875-2.9531 2.5312-4.3594s1.5938-2.8125 2.4375-4.125c1.6406-2.625 3.2344-5.0625 4.6406-7.4062 1.5-2.25 2.9531-4.2656 4.1719-6.1875 0.60938-0.9375 1.2188-1.8281 1.7812-2.6719 0.60938-0.84375 1.1719-1.5938 1.6875-2.2969 1.0312-1.4531 1.9219-2.6719 2.625-3.6562 1.4062-2.0156 2.1562-3.1406 2.1562-3.1406s-1.1719 0.70312-3.3281 2.1094c-1.0781 0.70312-2.3906 1.5938-3.9375 2.625-0.75 0.51562-1.5938 1.0781-2.4844 1.6875-0.84375 0.65625-1.7344 1.3125-2.6719 2.0625-1.875 1.4531-3.9844 3.0938-6.2344 4.9219-2.1562 1.875-4.4531 3.9844-6.9375 6.1875-1.2656 1.0781-2.4375 2.3438-3.6562 3.6094s-2.4844 2.5781-3.7969 3.8906c-0.65625 0.65625-1.3594 1.3125-1.9688 2.0625-0.60938 0.70312-1.2656 1.4531-1.875 2.2031-1.2656 1.5-2.5781 3-3.8906 4.5469-0.32812 0.375-0.65625 0.79688-0.98438 1.1719-0.32812 0.42188-0.60938 0.79688-0.9375 1.2188-0.60938 0.84375-1.2656 1.6406-1.875 2.4844-1.2656 1.6875-2.5781 3.4219-3.8438 5.2031-1.2188 1.8281-2.4375 3.6562-3.6562 5.5781-0.60938 0.9375-1.2188 1.9219-1.875 2.8594-0.60938 0.98438-1.1719 1.9688-1.7344 3-1.125 2.0156-2.2969 4.0781-3.4688 6.1406-1.125 2.1094-2.1562 4.2656-3.2344 6.4219-0.51562 1.0781-1.0781 2.2031-1.5938 3.2812-0.51562 1.125-0.98438 2.25-1.4531 3.375-0.9375 2.2969-1.9219 4.5938-2.8594 6.9375-3.4688 9.4219-6.375 19.453-8.3438 29.812-1.8281 10.359-2.8594 21.047-2.9062 31.688 0.09375 10.688 1.0781 21.328 2.9531 31.688 1.9688 10.359 4.875 20.344 8.3438 29.766 0.9375 2.3438 1.9219 4.6406 2.8594 6.9375 0.46875 1.125 0.9375 2.2969 1.4531 3.375 0.5625 1.125 1.0781 2.2031 1.5938 3.2812 1.0781 2.2031 2.1094 4.3594 3.2344 6.4219 1.1719 2.0625 2.3438 4.125 3.4688 6.1406 0.60938 0.98438 1.125 2.0156 1.7344 3s1.2656 1.9219 1.875 2.8594c1.2188 1.875 2.4844 3.75 3.6562 5.5781 1.3125 1.7812 2.5781 3.5156 3.8438 5.2031 0.65625 0.84375 1.2656 1.6875 1.875 2.4844 0.32812 0.42188 0.60938 0.84375 0.9375 1.2188s0.65625 0.79688 0.98438 1.1719c1.3125 1.5469 2.625 3.0469 3.8906 4.5469 0.65625 0.75 1.2656 1.4531 1.875 2.2031 0.60938 0.70312 1.3125 1.3594 1.9688 2.0625 1.3125 1.3125 2.5781 2.625 3.7969 3.8906s2.3906 2.4844 3.6562 3.6094c2.4844 2.25 4.7344 4.3125 6.9375 6.1875 2.3438 1.7344 4.4062 3.375 6.3281 4.8281z"/>
 <path d="m276.66 711.98c-0.98438-1.2656-2.2031-2.8125-3.6562-4.6406-0.70312-0.89062-1.5-1.875-2.3438-2.9531-0.79688-1.0781-1.5938-2.2031-2.4844-3.375-1.7344-2.3906-3.6562-5.0156-5.7656-7.8281-1.9219-2.9531-4.125-6.0938-6.375-9.4688-1.1719-1.6406-2.25-3.4688-3.375-5.2969s-2.2969-3.7031-3.4688-5.625c-0.5625-0.98438-1.2188-1.9219-1.7812-2.9062s-1.125-2.0156-1.7344-3.0469c-1.1719-2.0625-2.3438-4.125-3.5625-6.2812-0.28125-0.51562-0.60938-1.0781-0.89062-1.5938-0.28125-0.5625-0.5625-1.125-0.84375-1.6406-0.5625-1.125-1.125-2.25-1.7344-3.375-1.125-2.25-2.3438-4.5469-3.5156-6.8906-1.0781-2.3906-2.1562-4.8281-3.2812-7.2656-0.5625-1.2188-1.125-2.4375-1.6875-3.7031-0.5625-1.2188-1.0312-2.5312-1.5469-3.7969-1.0312-2.5781-2.0625-5.1562-3.1406-7.7812-0.28125-0.65625-0.51562-1.3125-0.75-1.9688s-0.46875-1.3594-0.70312-2.0156c-0.46875-1.3594-0.9375-2.6719-1.4531-4.0312-0.46875-1.3594-0.98438-2.7188-1.4531-4.0781s-0.84375-2.7656-1.2656-4.1719c-0.84375-2.8125-1.6875-5.625-2.5781-8.4844-0.75-2.8594-1.4531-5.7656-2.2031-8.7188-0.1875-0.75-0.375-1.4531-0.5625-2.2031l-0.28125-1.0781-0.23438-1.125c-0.28125-1.5-0.60938-2.9531-0.89062-4.4531-0.32812-1.5-0.60938-3-0.9375-4.5-0.14062-0.75-0.32812-1.5-0.46875-2.25l-0.32812-2.25c-0.46875-3.0469-0.98438-6.0938-1.4531-9.1406-1.6406-12.281-2.5312-24.797-2.5781-37.312 0.09375-12.516 0.98438-25.031 2.625-37.312 1.7812-12.234 4.3594-24.188 7.4062-35.672 0.84375-2.8594 1.7344-5.6719 2.5781-8.4844 0.42188-1.4062 0.79688-2.8125 1.3125-4.1719 0.46875-1.3594 0.98438-2.7188 1.4531-4.0781s0.9375-2.7188 1.4531-4.0312c0.23438-0.65625 0.46875-1.3594 0.70312-2.0156s0.46875-1.3594 0.75-1.9688c1.0781-2.625 2.1094-5.2031 3.1406-7.7812 0.51562-1.2656 0.98438-2.5781 1.5469-3.7969s1.125-2.4844 1.6875-3.7031c1.125-2.4375 2.25-4.875 3.2812-7.2656 1.1719-2.3438 2.3438-4.6406 3.5156-6.8906 0.5625-1.125 1.125-2.25 1.7344-3.375 0.28125-0.5625 0.5625-1.125 0.84375-1.6406 0.28125-0.5625 0.60938-1.0781 0.89062-1.5938 1.2188-2.1562 2.3906-4.2188 3.5156-6.2812 0.5625-1.0312 1.1719-2.0625 1.7344-3.0469s1.2188-1.9688 1.7812-2.9062c1.1719-1.9219 2.3438-3.7969 3.4688-5.625s2.2031-3.6094 3.375-5.2969c2.25-3.375 4.4531-6.5156 6.375-9.4688 2.1094-2.8594 4.0781-5.4375 5.7656-7.875 0.89062-1.2188 1.6875-2.3438 2.4844-3.4219 0.79688-1.0312 1.5938-2.0156 2.2969-2.9062 1.4531-1.8281 2.6719-3.375 3.6562-4.6406 1.9688-2.5781 3-3.9375 3-3.9375s-0.375 0.23438-1.0781 0.75c-0.70312 0.46875-1.7344 1.2188-3.0938 2.1562-1.3594 0.98438-3 2.1562-4.9219 3.5625-0.98438 0.70312-2.0156 1.4531-3.0938 2.2969-1.0312 0.89062-2.1562 1.7812-3.375 2.7656-2.3906 1.9688-4.9688 4.1719-7.8281 6.6094-2.7188 2.5312-5.5781 5.2969-8.6719 8.25-1.5938 1.4531-3.0469 3.0938-4.5938 4.7344-1.5469 1.6875-3.1406 3.375-4.7344 5.1562-0.79688 0.89062-1.6875 1.7812-2.4375 2.7188-0.79688 0.9375-1.5469 1.9219-2.3438 2.8594-1.5938 1.9688-3.2344 3.9375-4.875 6-0.42188 0.51562-0.84375 1.0312-1.2656 1.5469-0.375 0.51562-0.75 1.0781-1.1719 1.5938-0.79688 1.0781-1.5469 2.1562-2.3438 3.2812-1.5938 2.2031-3.2344 4.4531-4.8281 6.7969-1.5469 2.3438-3.0469 4.7812-4.5938 7.2656-0.75 1.2188-1.5469 2.4844-2.3438 3.75-0.75 1.2656-1.4531 2.5781-2.2031 3.8906-1.4531 2.625-2.9062 5.2969-4.3594 7.9688-1.4062 2.7188-2.6719 5.5312-4.0312 8.3438-0.65625 1.4062-1.3594 2.8594-2.0156 4.2656-0.65625 1.4531-1.2188 2.9062-1.8281 4.4062-1.1719 2.9531-2.3906 5.9531-3.5625 8.9531-1.0312 3.0469-2.0625 6.1406-3.1406 9.2812-0.28125 0.79688-0.51562 1.5469-0.79688 2.3438l-0.375 1.1719-0.32812 1.1719c-0.42188 1.5938-0.89062 3.1875-1.3125 4.7812s-0.84375 3.2344-1.3125 4.8281c-0.23438 0.79688-0.42188 1.5938-0.65625 2.4375-0.1875 0.79688-0.32812 1.6406-0.51562 2.4375-0.70312 3.2812-1.3594 6.6094-2.0625 9.9375-2.25 13.359-3.5156 27.094-3.6094 40.828 0.09375 13.734 1.3594 27.469 3.7031 40.828 2.4375 13.312 6.0938 26.25 10.453 38.438 1.1719 3.0469 2.3906 6 3.6094 8.9531 0.60938 1.4531 1.1719 2.9531 1.8281 4.4062s1.3594 2.8594 2.0156 4.2656c1.3594 2.8125 2.625 5.625 4.0312 8.3438 1.4531 2.6719 2.9062 5.3438 4.3594 7.9688 0.75 1.3125 1.4062 2.625 2.1562 3.8906 0.79688 1.2656 1.5469 2.4844 2.3438 3.75 1.5469 2.4844 3.0469 4.875 4.5938 7.2656 1.6406 2.2969 3.2344 4.5469 4.8281 6.7969 0.79688 1.125 1.5938 2.2031 2.3438 3.2812 0.375 0.5625 0.75 1.0781 1.1719 1.5938s0.84375 1.0312 1.2656 1.5469c1.6406 2.0156 3.2812 4.0312 4.875 6 0.79688 0.98438 1.5938 1.9219 2.3438 2.8594 0.375 0.46875 0.79688 0.9375 1.2188 1.3594 0.42188 0.46875 0.84375 0.89062 1.2188 1.3125 1.6406 1.7812 3.1875 3.4688 4.7344 5.1562 1.5469 1.6406 3 3.2812 4.5938 4.7812 3.0938 2.9531 5.9531 5.7656 8.6719 8.25 2.8594 2.4375 5.4375 4.6406 7.8281 6.6094 1.1719 0.98438 2.2969 1.9219 3.375 2.7656s2.1094 1.5938 3.0938 2.2969c1.9219 1.4062 3.5625 2.625 4.9219 3.5625 1.3125 0.98438 2.3906 1.6875 3.0938 2.2031 0.70312 0.46875 1.0781 0.75 1.0781 0.75s-0.28125-0.32812-0.75-0.98438c-0.65625-0.70312-1.3594-1.6875-2.3438-2.9531z"/>
 <path d="m925.82 617.34c0.60938-0.98438 1.1719-1.9688 1.7344-3 1.1719-2.0156 2.2969-4.0312 3.4688-6.1406 1.125-2.1094 2.1562-4.2656 3.2344-6.4219 0.51562-1.0781 1.0781-2.2031 1.5938-3.2812 0.51562-1.125 0.98438-2.25 1.4531-3.375 0.9375-2.2969 1.9219-4.5938 2.8594-6.9375 3.4688-9.4219 6.4219-19.453 8.3438-29.766 1.8281-10.359 2.8594-21.047 2.9531-31.688-0.09375-10.688-1.0781-21.328-2.9062-31.688-1.9688-10.359-4.875-20.344-8.3438-29.812-0.9375-2.3438-1.9219-4.6406-2.8594-6.9375-0.46875-1.125-0.9375-2.2969-1.4531-3.375-0.5625-1.125-1.0781-2.2031-1.5938-3.2812-1.0781-2.1562-2.1094-4.3594-3.2344-6.4219-1.1719-2.0625-2.3438-4.125-3.4688-6.1406-0.60938-0.98438-1.125-2.0156-1.7344-3s-1.2656-1.9219-1.875-2.8594c-1.2188-1.875-2.4844-3.75-3.6562-5.5781-1.3125-1.7812-2.5781-3.5156-3.8438-5.2031-0.65625-0.84375-1.2656-1.6875-1.875-2.4844-0.32812-0.42188-0.60938-0.84375-0.9375-1.2188s-0.65625-0.79688-0.98438-1.1719c-1.3125-1.5469-2.625-3.0469-3.8906-4.5469-0.65625-0.75-1.2656-1.4531-1.875-2.2031-0.60938-0.70312-1.3125-1.3594-1.9688-2.0625-1.3125-1.3125-2.5781-2.625-3.7969-3.8906s-2.3906-2.4844-3.6562-3.6094c-2.4844-2.25-4.7344-4.3125-6.9375-6.1875-2.25-1.8281-4.3125-3.4688-6.2344-4.9219-0.9375-0.70312-1.8281-1.4062-2.6719-2.0625-0.89062-0.60938-1.7344-1.1719-2.4844-1.6875-1.5469-1.0312-2.8594-1.9219-3.9375-2.625-2.1562-1.4062-3.3281-2.1094-3.3281-2.1094s0.75 1.125 2.1562 3.1406c0.70312 1.0312 1.5938 2.25 2.625 3.6562 0.51562 0.70312 1.0781 1.5 1.6875 2.2969 0.5625 0.84375 1.1719 1.7344 1.7812 2.6719 1.2656 1.875 2.6719 3.9375 4.1719 6.1875 1.4062 2.3438 3 4.7812 4.6406 7.4062 0.84375 1.3125 1.5938 2.6719 2.4375 4.125 0.79688 1.4062 1.6406 2.8594 2.5312 4.3594 0.42188 0.75 0.89062 1.5 1.2656 2.25 0.42188 0.79688 0.79688 1.5469 1.2188 2.3438 0.84375 1.5938 1.6875 3.1875 2.5781 4.875 0.23438 0.42188 0.42188 0.84375 0.65625 1.2188 0.1875 0.42188 0.42188 0.84375 0.60938 1.2656 0.42188 0.84375 0.79688 1.7344 1.2188 2.5781 0.84375 1.7344 1.6875 3.5156 2.5312 5.2969 0.79688 1.8281 1.5469 3.7031 2.3906 5.5781 0.42188 0.9375 0.79688 1.875 1.2188 2.8125s0.75 1.9219 1.125 2.9062c0.75 1.9688 1.5 3.9375 2.25 5.9531 0.42188 0.98438 0.65625 2.0156 1.0312 3.0469 0.32812 1.0312 0.70312 2.0625 1.0312 3.0938s0.70312 2.0625 1.0312 3.0938 0.60938 2.1094 0.9375 3.1875c0.60938 2.1094 1.2188 4.2656 1.875 6.4219 2.2031 8.7188 4.0781 17.766 5.3438 27.047 1.1719 9.2812 1.8281 18.703 1.875 28.172-0.046875 9.4688-0.70312 18.938-1.875 28.172-1.2656 9.2812-3.1406 18.328-5.3438 27.047-0.60938 2.1562-1.2188 4.3125-1.875 6.4219-0.32812 1.0781-0.5625 2.1562-0.9375 3.1875-0.32812 1.0312-0.70312 2.0625-1.0312 3.0938s-0.70312 2.0625-1.0312 3.0938-0.60938 2.0625-1.0312 3.0469c-0.75 2.0156-1.5469 3.9844-2.25 5.9531-0.375 0.98438-0.70312 1.9688-1.125 2.9062s-0.79688 1.875-1.2188 2.8125c-0.79688 1.875-1.5938 3.75-2.3906 5.5781-0.84375 1.7812-1.6875 3.5625-2.5312 5.2969-0.42188 0.89062-0.84375 1.7344-1.2188 2.5781-0.1875 0.42188-0.42188 0.84375-0.60938 1.2656-0.23438 0.42188-0.42188 0.84375-0.65625 1.2188-0.89062 1.6406-1.7344 3.2812-2.5781 4.875-0.42188 0.79688-0.84375 1.5938-1.2188 2.3438-0.42188 0.79688-0.84375 1.5-1.2656 2.25-0.84375 1.5-1.6875 2.9531-2.5312 4.3594s-1.5938 2.8125-2.4375 4.125c-1.6406 2.625-3.2344 5.0625-4.6406 7.4062-1.5 2.2031-2.9062 4.2656-4.1719 6.1406-0.60938 0.9375-1.2188 1.8281-1.7812 2.6719-0.60938 0.84375-1.1719 1.5938-1.6875 2.3438-1.0781 1.4531-1.9219 2.6719-2.6719 3.7031-1.4531 2.0156-2.1562 3.1406-2.1562 3.1406s1.1719-0.70312 3.3281-2.1094c1.0781-0.70312 2.3906-1.5469 3.8906-2.625 0.75-0.51562 1.5938-1.0781 2.4375-1.6875 0.84375-0.65625 1.7344-1.3594 2.6719-2.0625 1.9219-1.4531 3.9844-3.0938 6.2344-4.9219 2.1562-1.875 4.4531-3.9844 6.9375-6.1875 1.2656-1.0781 2.4375-2.3438 3.6562-3.6094s2.4844-2.5781 3.7969-3.8906c0.65625-0.65625 1.3594-1.3125 1.9688-2.0625 0.60938-0.70312 1.2656-1.4531 1.875-2.2031 1.2656-1.5 2.5781-3 3.8906-4.5469 0.32812-0.375 0.65625-0.79688 0.98438-1.1719 0.32812-0.42188 0.60938-0.79688 0.9375-1.2188 0.60938-0.84375 1.2656-1.6406 1.875-2.4844 1.2656-1.6875 2.5781-3.4219 3.8438-5.2031 1.2188-1.8281 2.4375-3.6562 3.6562-5.5781 0.70312-0.84375 1.3594-1.7812 1.9688-2.7656z"/>
 <path d="m1016.3 485.86c-0.70312-3.3281-1.3594-6.6094-2.0625-9.9375-0.1875-0.84375-0.32812-1.6406-0.51562-2.4375s-0.42188-1.6406-0.65625-2.4375c-0.42188-1.5938-0.84375-3.2344-1.3125-4.8281-0.42188-1.5938-0.89062-3.1875-1.3125-4.7812l-0.32812-1.1719-0.375-1.1719c-0.28125-0.79688-0.51562-1.5469-0.79688-2.3438-1.0312-3.0938-2.1094-6.1875-3.1406-9.2812-1.1719-3.0469-2.3906-6-3.5625-8.9531-0.60938-1.4531-1.1719-2.9531-1.8281-4.4062s-1.3594-2.8594-2.0156-4.2656c-1.3594-2.8125-2.625-5.625-4.0312-8.3438-1.4531-2.6719-2.9062-5.3438-4.3594-7.9688-0.75-1.3125-1.4062-2.625-2.2031-3.8906s-1.5469-2.4844-2.3438-3.75c-1.5469-2.4844-3.0469-4.875-4.5938-7.2656-1.6406-2.2969-3.2344-4.5469-4.8281-6.7969-0.79688-1.125-1.5938-2.2031-2.3438-3.2812-0.375-0.5625-0.79688-1.0781-1.1719-1.5938-0.42188-0.51562-0.84375-1.0312-1.2656-1.5469-1.6406-2.0156-3.2812-4.0312-4.875-6-0.79688-0.98438-1.5938-1.9219-2.3438-2.8594s-1.6406-1.8281-2.4375-2.7188c-1.6406-1.7812-3.2344-3.4688-4.7344-5.1562-1.5469-1.6406-3-3.2812-4.5938-4.7344-3.0938-2.9531-5.9531-5.7656-8.6719-8.25-2.8125-2.4375-5.4375-4.6406-7.8281-6.6094-1.1719-0.98438-2.2969-1.9219-3.375-2.7656s-2.1562-1.5938-3.0938-2.2969c-1.9219-1.4062-3.6094-2.625-4.9219-3.5625-1.3594-0.98438-2.3906-1.6875-3.0938-2.1562s-1.0781-0.75-1.0781-0.75 1.0312 1.3594 3 3.9375c0.98438 1.2656 2.2031 2.8125 3.6562 4.6406 0.70312 0.89062 1.5 1.875 2.2969 2.9062 0.79688 1.0781 1.5938 2.2031 2.4844 3.4219 1.7344 2.3906 3.7031 5.0156 5.7656 7.875 1.9219 2.9531 4.125 6.0938 6.375 9.4688 1.1719 1.6406 2.25 3.4688 3.375 5.2969s2.2969 3.7031 3.4688 5.625c0.5625 0.98438 1.2188 1.9219 1.7812 2.9062s1.125 2.0156 1.7344 3.0469c1.1719 2.0625 2.3438 4.125 3.5156 6.2812 0.28125 0.51562 0.60938 1.0781 0.89062 1.5938 0.28125 0.5625 0.5625 1.125 0.84375 1.6406 0.5625 1.125 1.125 2.25 1.7344 3.375 1.125 2.25 2.3438 4.5469 3.5156 6.8906 1.0312 2.3906 2.1562 4.8281 3.2812 7.2656 0.5625 1.2188 1.125 2.4375 1.6875 3.7031s1.0312 2.5312 1.5469 3.7969c1.0312 2.5781 2.0625 5.1562 3.1406 7.7812 0.28125 0.65625 0.51562 1.3125 0.75 1.9688s0.46875 1.3594 0.70312 2.0156c0.46875 1.3594 0.9375 2.6719 1.4531 4.0312 0.46875 1.3594 0.9375 2.7188 1.4531 4.0781 0.46875 1.3594 0.84375 2.7656 1.3125 4.1719 0.84375 2.8125 1.6875 5.625 2.5781 8.4844 3.0469 11.484 5.625 23.438 7.4062 35.672 1.6406 12.281 2.5312 24.797 2.625 37.312-0.09375 12.516-0.98438 25.031-2.625 37.312-0.51562 3.0469-0.98438 6.0938-1.4531 9.1406l-0.32812 2.25c-0.14062 0.75-0.32812 1.5-0.46875 2.25-0.32812 1.5-0.60938 3-0.9375 4.5-0.28125 1.5-0.60938 3-0.89062 4.4531l-0.23438 1.125-0.28125 1.0781c-0.1875 0.75-0.375 1.4531-0.5625 2.2031-0.75 2.9062-1.4531 5.8125-2.2031 8.7188-0.84375 2.8594-1.7344 5.6719-2.5781 8.4844-0.42188 1.4062-0.79688 2.8125-1.2656 4.1719s-0.98438 2.7188-1.4531 4.0781-0.9375 2.7188-1.4531 4.0312c-0.23438 0.65625-0.46875 1.3594-0.70312 2.0156s-0.46875 1.3594-0.75 1.9688c-1.0781 2.625-2.1094 5.2031-3.1406 7.7812-0.51562 1.2656-0.98438 2.5781-1.5469 3.7969s-1.125 2.4844-1.6875 3.7031c-1.125 2.4375-2.2031 4.875-3.2812 7.2656-1.1719 2.3438-2.3438 4.6406-3.5156 6.8906-0.5625 1.125-1.1719 2.25-1.7344 3.375-0.28125 0.5625-0.5625 1.125-0.84375 1.6406-0.28125 0.5625-0.60938 1.0781-0.89062 1.5938-1.2188 2.1562-2.3906 4.2188-3.5625 6.2812-0.5625 1.0312-1.1719 2.0625-1.7344 3.0469s-1.2188 1.9688-1.7812 2.9062c-1.1719 1.9219-2.3438 3.7969-3.4688 5.625s-2.2031 3.6094-3.375 5.2969c-2.25 3.375-4.4531 6.5156-6.375 9.4688-2.0625 2.8594-4.0312 5.4375-5.7656 7.8281-0.89062 1.2188-1.6875 2.3438-2.4844 3.375-0.84375 1.0312-1.5938 2.0156-2.3438 2.9531-1.4531 1.8281-2.6719 3.375-3.6562 4.6406s-1.7344 2.25-2.25 2.9062-0.75 0.98438-0.75 0.98438 0.375-0.23438 1.0781-0.75 1.7344-1.2188 3.0938-2.2031 3-2.1562 4.9219-3.5625c0.9375-0.70312 2.0156-1.4531 3.0938-2.2969 1.0312-0.89062 2.1562-1.8281 3.375-2.7656 2.3906-1.9688 5.0156-4.1719 7.8281-6.6094 2.7188-2.5312 5.5781-5.2969 8.6719-8.25 1.5938-1.4531 3.0469-3.0938 4.5938-4.7812s3.1406-3.375 4.7344-5.1562c0.42188-0.42188 0.79688-0.89062 1.2188-1.3125 0.42188-0.46875 0.84375-0.89062 1.2188-1.3594 0.75-0.9375 1.5469-1.9219 2.3438-2.8594 1.5938-1.9688 3.1875-3.9375 4.875-6 0.42188-0.51562 0.84375-1.0312 1.2656-1.5469 0.375-0.51562 0.79688-1.0781 1.1719-1.5938 0.79688-1.0781 1.5469-2.1562 2.3438-3.2812 1.5938-2.2031 3.2344-4.4531 4.8281-6.7969 1.5469-2.3438 3.0469-4.7812 4.5938-7.2656 0.75-1.2188 1.5469-2.4844 2.3438-3.75 0.75-1.2656 1.4531-2.5781 2.1562-3.8906 1.4531-2.625 2.9062-5.2969 4.3594-7.9688 1.4062-2.7188 2.6719-5.5312 4.0312-8.3438 0.65625-1.4062 1.3594-2.8594 2.0156-4.2656 0.65625-1.4531 1.2188-2.9062 1.8281-4.4062 1.1719-2.9531 2.3906-5.9531 3.6094-8.9531 4.3594-12.188 7.9688-25.078 10.453-38.438 2.2969-13.359 3.5625-27.094 3.7031-40.828-0.09375-13.688-1.3594-27.422-3.6562-40.781z"/>
</svg>
