<?xml version="1.0" encoding="UTF-8"?>
<svg width="1200pt" height="1200pt" version="1.1" viewBox="0 0 1200 1200" xmlns="http://www.w3.org/2000/svg">
 <path d="m587.21 90.703v368.44h40.406l0.046875-327.98h64.594l-0.046875 712.92h40.406l0.046875-712.92h213.05l-0.046875 937.69h-107.53v40.406h252.98v-1018.5zm463.4 978.1h-64.594l0.046875-937.64h64.594v937.69z"/>
 <path d="m818.95 348h40.406v75h-40.406z"/>
 <path d="m818.95 797.95h40.406v75h-40.406z"/>
 <path d="m818.95 647.95h40.406v75.047h-40.406z"/>
 <path d="m818.95 947.95h40.406v54h-40.406z"/>
 <path d="m818.95 198h40.406v75h-40.406z"/>
 <path d="m818.95 498h40.406v75h-40.406z"/>
 <path d="m758.72 977.21-68.719-24.609-143.06-473.48c-6.6562-21.984-26.531-36.75-49.453-36.75h-97.781c-22.922 0-42.797 14.766-49.406 36.703l-143.44 474.66-68.344 23.438c-17.719 6.2812-29.578 23.156-29.578 41.953v45.562c0 24.562 19.969 44.531 44.531 44.531h590.29c24.562 0 44.531-19.969 44.531-44.531v-45.562c0-18.844-11.906-35.672-29.578-41.953zm-480.84-118.83h341.48l27.094 89.672h-395.68zm313.64-92.109h-285.84l27.281-90.281h231.28zm-202.6-275.48c1.4062-4.7344 5.8594-8.0156 10.781-8.0156h97.781c4.9688 0 9.2812 3.1875 10.781 7.9688l28.172 93.188h-175.6l28.172-93.141zm358.97 573.89c0 2.2969-1.875 4.125-4.125 4.125l-590.29 0.046875c-2.2969 0-4.125-1.875-4.125-4.125v-45.562c0-1.7812 1.0781-3.2812 2.7188-3.8906l75-26.859h443.02l75.047 26.859c1.6406 0.60938 2.7188 2.1562 2.7188 3.8906v45.562z"/>
</svg>
