<?xml version="1.0" encoding="UTF-8"?>
<svg width="1200pt" height="1200pt" version="1.1" viewBox="0 0 1200 1200" xmlns="http://www.w3.org/2000/svg">
 <path d="m368.29 1080c-54.047 0-109.27-4.7812-164.16-14.25-6.1875-1.0781-10.875-6.2344-11.297-12.516-0.42188-6.2812 3.5156-12.047 9.5625-13.922 65.812-20.625 124.36-69.703 158.58-132.47-93.797-73.219-149.58-186.52-149.95-305.58-0.046876-0.42188-0.046876-0.79688-0.046876-1.2188 0-86.203 27.703-167.95 80.109-236.34 116.77-157.08 308.81-243.66 540.66-243.66 54.047 0 109.27 4.7812 164.16 14.25 6.1875 1.0781 10.875 6.2344 11.297 12.516s-3.5156 12.047-9.5625 13.922c-65.812 20.625-124.36 69.703-158.58 132.47 93.797 73.219 149.58 186.52 149.95 305.58 0.046875 0.42188 0.046875 0.79688 0.046875 1.2188 0 86.203-27.703 167.95-80.109 236.34-116.77 157.08-308.86 243.66-540.66 243.66zm95.906-480c0 74.906 60.938 135.84 135.84 135.84 74.484 0 135.19-60.281 135.84-134.68-0.046875-0.375-0.046875-0.75-0.046875-1.125 0-74.906-60.938-135.84-135.84-135.84-74.484 0-135.19 60.281-135.84 134.68 0.046875 0.375 0.046875 0.75 0.046875 1.1719z"/>
</svg>
