<?xml version="1.0" encoding="UTF-8"?>
<svg width="1200pt" height="1200pt" version="1.1" viewBox="0 0 1200 1200" xmlns="http://www.w3.org/2000/svg">
 <path d="m1103.4 1122.7-39.125-169.91h-0.003906c-10.645-46.434-34.781-88.684-69.379-121.44-34.598-32.75-78.105-54.543-125.05-62.633-0.60938-0.26953-1.2578-0.43359-1.9219-0.48047l-85.02-21.25-35.812-53.711c28.914-22.355 52.328-51.039 68.445-83.844 16.121-32.805 24.516-68.867 24.543-105.42v-95.996h48.008c6.4062 0.066407 12.57-2.4336 17.125-6.9414 4.5508-4.5078 7.1133-10.648 7.1133-17.055 0-6.4102-2.5625-12.551-7.1133-17.059-4.5547-4.5039-10.719-7.0039-17.125-6.9414h-33.125l54.488-109.2c2.7852-5.4375 3.3672-11.738 1.625-17.598-1.7461-5.8555-5.6797-10.812-10.988-13.84l-288.05-167.99c-3.6055-2.2344-7.7617-3.418-12-3.418-4.2422 0-8.3984 1.1836-12.004 3.418l-288.05 167.99c-5.3086 3.0273-9.2422 7.9883-10.988 13.844-1.7422 5.8555-1.1602 12.156 1.625 17.594l54.73 109.2h-33.363c-6.4062-0.0625-12.574 2.4375-17.125 6.9414-4.5547 4.5078-7.1172 10.648-7.1172 17.059 0 6.4062 2.5625 12.547 7.1172 17.055 4.5508 4.5078 10.719 7.0078 17.125 6.9414h48.008v95.996c0.027343 36.551 8.4219 72.613 24.539 105.42s39.531 61.488 68.445 83.848l-35.812 53.711-85.016 21.25v-0.003907c-0.66406 0.046876-1.3125 0.21094-1.9219 0.48047-46.949 8.0898-90.457 29.883-125.05 62.633-34.598 32.754-58.734 75.004-69.379 121.44l-39.129 169.91c-1.6562 7.0664 0.023437 14.5 4.5625 20.16 4.5273 5.7305 11.418 9.0859 18.723 9.1211h432.07c6.3633 0 12.469-2.5273 16.969-7.0312 4.5-4.5 7.0312-10.605 7.0312-16.969v-167.99c0-8.5781 4.5742-16.5 12-20.789 7.4258-4.2891 16.578-4.2891 24.004 0 7.4258 4.2891 12.004 12.211 12.004 20.789v167.99c0 6.3633 2.5273 12.469 7.0273 16.969 4.5 4.5039 10.605 7.0312 16.973 7.0312h432.07c7.3008-0.035156 14.191-3.3906 18.723-9.1211 4.5391-5.6602 6.2188-13.094 4.5625-20.16zm-503.36-930.67c12.73 0.003907 24.938 5.0625 33.934 14.066 9 9 14.055 21.211 14.055 33.938-0.003906 12.73-5.0625 24.938-14.062 33.938-9.0039 9-21.211 14.055-33.941 14.055-12.727 0-24.934-5.0586-33.934-14.059-9.0039-9.0039-14.059-21.211-14.059-33.938 0.015624-12.73 5.0781-24.93 14.078-33.93 9-8.9961 21.203-14.059 33.93-14.07zm-192.03 311.98v-95.996h384.06v95.996c-0.058594 50.891-20.316 99.68-56.32 135.65-36.008 35.965-84.82 56.168-135.71 56.168-50.895 0-99.703-20.203-135.71-56.168-36.008-35.969-56.266-84.758-56.32-135.65zm54.246 401.98-83.293-100.07 49.449-12.238 120.74 68.875zm137.79-69.836-133.74-76.316 27.352-41.02c33.02 16.559 69.449 25.184 106.39 25.184s73.367-8.625 106.39-25.184l27.352 41.02zm50.887 26.398 120.74-68.875 49.449 12.238-83.297 100.07zm261.16 193.43-72.012 0.003906c-6.4062 0.0625-12.574-2.4375-17.125-6.9453-4.5547-4.5078-7.1172-10.648-7.1172-17.055s2.5625-12.547 7.1172-17.055c4.5508-4.5078 10.719-7.0078 17.125-6.9453h72.012c6.4062-0.0625 12.57 2.4375 17.125 6.9453 4.5547 4.5078 7.1133 10.648 7.1133 17.055s-2.5586 12.547-7.1133 17.055c-4.5547 4.5078-10.719 7.0078-17.125 6.9453z"/>
</svg>
