<?xml version="1.0" encoding="UTF-8"?>
<svg width="1200pt" height="1200pt" version="1.1" viewBox="0 0 1200 1200" xmlns="http://www.w3.org/2000/svg">
 <path d="m1076.2 673.97c-0.46875-0.42188-0.9375-0.84375-1.3594-1.2188-7.0312-6.375-14.156-12.328-20.625-19.172 21.797 2.0625 55.266-7.2656 56.25-32.156 0.5625-23.812-37.875-36.891-60.656-31.125-9.0938 2.1094-16.594 7.9688-20.531 16.594-0.09375 0.23438-0.1875 0.46875-0.32812 0.65625-2.3906-6.6562-5.5312-15.422-8.8125-24.609-5.9062-16.172-12.75-35.625-17.156-47.109-10.172-26.156-28.594-46.5-53.391-60.047-49.641-24.656-107.91-19.5-180.94-20.719h-31.453c-25.969 0.09375-51.375 0.32812-76.828 2.4844-22.688 1.875-48.75 6.375-67.781 15.656-26.062 12.656-47.109 34.312-57.797 61.406-0.1875 0.42188-0.375 0.84375-0.51562 1.3125-4.9688 13.031-11.109 30.375-16.312 44.859-0.09375 0.28125-0.23438 0.60938-0.375 0.9375-3 8.4375-6.2812 17.531-8.625 24.188-4.4062-7.7344-11.344-12.469-18.938-14.859-17.391-5.3438-41.156 0.65625-52.406 10.078-16.594 12.984-13.219 33.938 5.25 44.297 10.406 6.4688 26.719 9.1875 40.125 8.25-15.938 16.219-35.156 29.438-46.922 49.688-7.0312 11.531-13.781 26.438-10.594 40.547 1.2188 6.9844 2.3906 13.688 3.375 20.531 2.8125 18.422 4.8281 37.969 5.9062 56.062 1.4062 22.125 1.6406 42.891 1.7344 63.656 0.046875 15.188 9 28.266 21.844 34.406v47.578c0 11.438 8.4375 20.672 18.891 20.672h61.641c10.406 0 18.891-9.2812 18.891-20.672v-43.875h17.531c21.422-16.688 33.188-43.219 64.828-43.172h256.97c31.688 0 43.406 26.484 64.828 43.172h17.531v43.875c0 11.438 8.4375 20.672 18.891 20.672h61.641c10.406 0 18.891-9.2812 18.891-20.672v-47.578c12.844-6.1406 21.797-19.266 21.844-34.406 0.1875-43.125 1.125-86.297 11.109-140.53 4.9219-27.375-20.25-55.594-35.578-69.609zm-496.69-118.83c17.156-46.312 66.703-48 110.25-50.109h0.375c12.938-0.46875 25.781-0.65625 38.812-0.75h0.14062c12.844-0.046875 26.438-0.046875 39.469-0.046875 59.156 0.65625 126.37-2.5312 158.63 15.375 25.875 14.484 30.234 34.922 40.125 62.25 3.75 10.5 7.6875 21.234 11.25 31.266-92.25 11.438-311.21 12.938-420.05 0 6.75-18.938 16.125-44.859 20.812-57.562 0.046875-0.14062 0.09375-0.28125 0.14062-0.375zm-101.02 217.82c-0.46875-1.6406-0.84375-3.375-1.2188-5.1094-2.5781-13.5-3.9375-30.281 2.8125-42.375 4.6875-6.8438 10.312-5.0625 18.938-4.5469 20.25 2.4844 45.609 9.4688 64.969 15.75 9.8438 3.2344 18 6.375 22.594 8.8125 4.125 2.0625 6.7031 7.875 7.5 13.406 1.3594 7.875 0.51562 17.719-1.6875 25.547-1.3125 5.1562-4.125 11.391-7.125 13.781-11.625 10.031-66.375 9.0938-90.656-3.2344-9.6562-4.5938-13.031-11.625-16.031-22.031zm208.64 61.219c-7.5938 0-13.828-6.0938-13.969-13.688v-17.906c0-7.7344 6.2812-13.969 13.969-13.969h162.94c7.6875 0 13.969 6.2812 13.969 13.969v17.625c0 7.6875-6.2812 13.969-13.969 13.969zm264.84-35.906c-9.2812-7.7812-15.047-44.719-1.3125-52.781 4.5938-2.4375 12.75-5.5312 22.594-8.8125 14.109-4.6406 31.594-9.4688 46.781-12.656 10.406-2.0625 21.188-4.4062 30.469-3.375 17.062 2.8125 13.5 55.312 0 68.906-22.219 19.031-85.031 19.078-98.484 8.625z"/>
 <path d="m931.82 922.22c-10.266-10.594-19.406-22.875-34.781-22.641h-256.97c-15.375-0.1875-24.516 12.047-34.781 22.641z"/>
 <path d="m1017.3 455.06c-7.4062-6.8438-15.047-13.125-21.984-20.438 23.156 1.7812 54.844-7.3125 56.203-32.156 0-18.188-21.938-32.391-49.922-32.391-13.406-0.28125-26.25 5.8594-31.594 18.469-6.75-18.938-19.219-53.531-25.031-69.375-9.6562-26.203-27.188-46.781-52.031-61.125-37.594-22.547-104.53-22.125-183.24-21.984-101.44 2.1094-177.1-8.9062-224.44 61.078 22.266 0.28125 45 1.0312 66.094 3.375 25.359-16.125 99.094-15.422 164.81-15.234 86.906 2.25 159-8.7656 182.63 50.906 4.4062 11.906 13.031 35.859 19.781 54.703 0.42188 1.125 0.84375 2.2031 1.2188 3.2812-31.594 5.0156-131.9 9.75-228.66 8.9062 3.4219 9.4688 7.0781 19.406 10.641 29.438 70.734 0.14062 170.81-4.7344 225.74 10.172 13.312 3.5625 25.312 8.3438 36.328 14.766 48.281 28.266 58.688 63.422 76.125 113.16 2.0625-0.70312 4.2188-1.2656 6.4219-1.6875 1.5938-14.062 3.6562-28.734 6.5625-44.344 4.875-27.469-20.25-55.641-35.625-69.609z"/>
 <path d="m669 409.22c-30.094-88.5-114-88.5-194.81-89.344-15.938-0.14062-33.094-0.09375-49.266-0.09375-112.12 1.7812-190.13-6.9375-228.74 83.109-3.5625 9.6562-9.6562 26.625-15.422 42.656l-0.375 0.9375c-3.1875 8.9062-6.2344 17.391-8.625 24.141-4.4062-7.7344-11.344-12.469-18.938-14.812-0.84375-0.28125-1.6875-0.51562-2.5312-0.70312-27.047-6.1875-61.781 10.078-60.656 31.125 1.2656 24.938 33.094 33.844 56.203 32.25-21.469 21.609-42.094 33.375-55.312 66.469-2.9531 7.4062-3.75 15.562-2.2969 23.438 9.9844 54.469 10.969 97.594 11.109 140.63 0.09375 15.188 9 28.266 21.844 34.406v47.578c0 11.438 8.4375 20.672 18.891 20.672h61.641c10.406 0 18.891-9.2812 18.891-20.672v-43.875h17.484c10.594-8.5312 19.031-18.844 28.875-28.125 9.2812-8.4375 20.156-15.047 36-15.047h88.781c-1.8281-15.094 1.6875-30.469 8.3438-44.062 0.09375-0.28125 0.28125-0.5625 0.375-0.84375h-50.438c-7.7344 0-13.969-6.2812-13.969-13.969v-17.625c0-7.7812 6.4219-14.016 13.969-13.969h68.766c-8.1562-8.4375-13.031-18.797-13.453-30.281-0.79688-19.594 11.156-36.328 30.422-46.172 0.28125-0.14062 0.5625-0.28125 0.79688-0.42187 16.125-8.1094 41.766-12.094 60.75-6.2344 11.344-30.562 19.078-61.219 41.531-85.125-89.391 3.0469-238.18 2.9531-317.44-7.2188 6.8438-19.125 16.266-45.375 20.906-57.984 5.6719-15.375 15.656-27 30.469-35.531 32.062-18.094 104.53-14.766 152.16-15.375 13.125 0 26.625 0 39.562 0.046874 37.219 0.84375 94.453-1.4531 125.53 15.375 23.25 13.172 29.156 30.516 37.312 54.375 16.312-3 33.188-4.5 50.391-5.3438-2.8125-7.9688-6.2812-17.438-8.7188-24.188zm-419.63 201.1c13.219 6.9844 8.625 44.109-1.3125 52.781-13.406 10.5-76.266 10.406-98.531-8.625-13.5-13.594-17.062-66.094 0-68.906 3.1875-0.51562 8.0156-0.28125 13.875 0.46875 25.922 3.3281 72.141 17.062 85.875 24.375z"/>
 <path d="m396.37 772.97c-0.375-2.8125-0.84375-5.6719-1.3125-8.5781h-92.109c-15.375-0.1875-24.469 12.047-34.781 22.641h130.03c-0.5625-4.5938-1.125-9.2812-1.875-14.062z"/>
</svg>
